<svg width="48" height="48" viewBox="0 0 48 48" fill="none" xmlns="http://www.w3.org/2000/svg">
<g id="ac_unit">
<mask id="mask0_75_29614" style="mask-type:alpha" maskUnits="userSpaceOnUse" x="0" y="0" width="48" height="48">
<rect id="Bounding box" width="47.2635" height="47.2635" fill="#D9D9D9"/>
</mask>
<g mask="url(#mask0_75_29614)">
<path id="ac_unit_2" d="M21.6625 43.325V35.1523L15.2623 41.4541L12.5052 38.6971L21.6625 29.5398V25.6012H17.7239L8.5666 34.7584L5.80957 32.0014L12.1114 25.6012H3.93872V21.6625H12.1114L5.80957 15.2623L8.5666 12.5052L17.7239 21.6625H21.6625V17.7239L12.5052 8.5666L15.2623 5.80957L21.6625 12.1114V3.93872H25.6012V12.1114L32.0014 5.80957L34.7584 8.5666L25.6012 17.7239V21.6625H29.5398L38.6971 12.5052L41.4541 15.2623L35.1523 21.6625H43.325V25.6012H35.1523L41.4541 32.0014L38.6971 34.7584L29.5398 25.6012H25.6012V29.5398L34.7584 38.6971L32.0014 41.4541L25.6012 35.1523V43.325H21.6625Z" fill="#252C40"/>
</g>
</g>
</svg>
