<svg width="15" height="8" viewBox="0 0 15 8" fill="none" xmlns="http://www.w3.org/2000/svg">
<path id="Vector" d="M14.7032 1.58525L8.05409 7.79724C7.97493 7.87097 7.88918 7.92307 7.79683 7.95355C7.70449 7.98452 7.60554 8 7.5 8C7.39446 8 7.29551 7.98452 7.20317 7.95355C7.11082 7.92307 7.02507 7.87097 6.94591 7.79724L0.277045 1.58525C0.0923483 1.41321 8.11112e-08 1.19816 8.41886e-08 0.940092C8.7266e-08 0.682027 0.0989447 0.460829 0.296834 0.276497C0.494723 0.0921655 0.725594 8.65262e-09 0.989446 1.1799e-08C1.2533 1.49454e-08 1.48417 0.0921655 1.68206 0.276497L7.5 5.69585L13.3179 0.276498C13.5026 0.104455 13.7301 0.0184328 14.0003 0.0184328C14.271 0.0184328 14.5053 0.110599 14.7032 0.294931C14.9011 0.479263 15 0.694316 15 0.940092C15 1.18587 14.9011 1.40092 14.7032 1.58525Z" fill="white"/>
</svg>
