<svg width="24" height="24" viewBox="0 0 24 24" fill="none" xmlns="http://www.w3.org/2000/svg">
<g id="share_location">
<mask id="mask0_409_27" style="mask-type:alpha" maskUnits="userSpaceOnUse" x="0" y="0" width="24" height="24">
<rect id="Bounding box" width="24" height="24" fill="#D9D9D9"/>
</mask>
<g mask="url(#mask0_409_27)">
<path id="share_location_2" d="M12.975 21.95V19.95C13.675 19.85 14.3542 19.6584 15.0125 19.375C15.6709 19.0917 16.2917 18.7334 16.875 18.3L18.325 19.75C17.5417 20.3667 16.7 20.8625 15.8 21.2375C14.9 21.6125 13.9584 21.85 12.975 21.95ZM19.725 18.3L18.325 16.9C18.7584 16.35 19.1084 15.7459 19.375 15.0875C19.6417 14.4292 19.825 13.7334 19.925 13H21.975C21.8417 14.0334 21.5875 14.9959 21.2125 15.8875C20.8375 16.7792 20.3417 17.5834 19.725 18.3ZM19.925 11C19.825 10.25 19.6417 9.54588 19.375 8.88755C19.1084 8.22922 18.7584 7.63338 18.325 7.10005L19.725 5.70005C20.3584 6.43338 20.8709 7.25005 21.2625 8.15005C21.6542 9.05005 21.8917 10 21.975 11H19.925ZM10.975 21.95C8.42502 21.65 6.29586 20.5542 4.58752 18.6625C2.87919 16.7709 2.02502 14.55 2.02502 12C2.02502 9.41672 2.87919 7.18338 4.58752 5.30005C6.29586 3.41672 8.42502 2.33338 10.975 2.05005V4.05005C8.97502 4.33338 7.31669 5.22505 6.00002 6.72505C4.68336 8.22505 4.02502 9.98338 4.02502 12C4.02502 14 4.68336 15.75 6.00002 17.25C7.31669 18.75 8.97502 19.65 10.975 19.95V21.95ZM16.925 5.70005C16.325 5.25005 15.6917 4.88338 15.025 4.60005C14.3584 4.31672 13.675 4.13338 12.975 4.05005V2.05005C13.9584 2.13338 14.9 2.36255 15.8 2.73755C16.7 3.11255 17.5417 3.61672 18.325 4.25005L16.925 5.70005ZM12 17C10.65 15.85 9.64586 14.7875 8.98752 13.8125C8.32919 12.8375 8.00002 11.9334 8.00002 11.1C8.00002 9.85005 8.40419 8.85422 9.21252 8.11255C10.0209 7.37088 10.95 7.00005 12 7.00005C13.05 7.00005 13.9792 7.37088 14.7875 8.11255C15.5959 8.85422 16 9.85005 16 11.1C16 11.9334 15.6709 12.8375 15.0125 13.8125C14.3542 14.7875 13.35 15.85 12 17ZM12 12C12.3 12 12.5542 11.8959 12.7625 11.6875C12.9709 11.4792 13.075 11.225 13.075 10.925C13.075 10.6417 12.9709 10.3917 12.7625 10.175C12.5542 9.95838 12.3 9.85005 12 9.85005C11.7 9.85005 11.4459 9.95838 11.2375 10.175C11.0292 10.3917 10.925 10.6417 10.925 10.925C10.925 11.225 11.0292 11.4792 11.2375 11.6875C11.4459 11.8959 11.7 12 12 12Z" fill="#00DBF2"/>
</g>
</g>
</svg>
