<svg width="43" height="43" viewBox="0 0 43 43" fill="none" xmlns="http://www.w3.org/2000/svg">
<g id="airline_seat_recline_extra">
<mask id="mask0_75_29602" style="mask-type:alpha" maskUnits="userSpaceOnUse" x="0" y="0" width="43" height="43">
<rect id="Bounding box" width="42.24" height="42.24" fill="#D9D9D9"/>
</mask>
<g mask="url(#mask0_75_29602)">
<path id="airline_seat_recline_extra_2" d="M14.96 10.56C13.992 10.56 13.1634 10.2154 12.474 9.52602C11.7847 8.83669 11.44 8.00802 11.44 7.04002C11.44 6.07202 11.7847 5.24335 12.474 4.55402C13.1634 3.86469 13.992 3.52002 14.96 3.52002C15.928 3.52002 16.7567 3.86469 17.446 4.55402C18.1354 5.24335 18.48 6.07202 18.48 7.04002C18.48 8.00802 18.1354 8.83669 17.446 9.52602C16.7567 10.2154 15.928 10.56 14.96 10.56ZM24.64 35.2H13.288C12.32 35.2 11.4327 34.8554 10.626 34.166C9.81936 33.4767 9.31336 32.648 9.10803 31.68L5.28003 12.32H8.88803L12.76 31.68H24.64V35.2ZM34.32 38.72L29.216 29.92H16.984C16.1334 29.92 15.3927 29.6634 14.762 29.15C14.1314 28.6367 13.728 27.9547 13.552 27.104L11.616 17.688C11.2934 16.28 11.6234 15.0334 12.606 13.948C13.5887 12.8627 14.784 12.32 16.192 12.32C17.2187 12.32 18.15 12.628 18.986 13.244C19.822 13.86 20.3574 14.696 20.592 15.752L22.528 24.64H28.248C28.864 24.64 29.436 24.8014 29.964 25.124C30.492 25.4467 30.9174 25.872 31.24 26.4L37.4 36.96L34.32 38.72Z" fill="#252C40"/>
</g>
</g>
</svg>
