<svg width="20" height="21" viewBox="0 0 20 21" fill="none" xmlns="http://www.w3.org/2000/svg">
<mask id="mask0_409_1420" style="mask-type:alpha" maskUnits="userSpaceOnUse" x="0" y="0" width="20" height="20">
<rect width="20" height="20" fill="#D9D9D9"/>
</mask>
<g mask="url(#mask0_409_1420)">
<path d="M6.66669 5.8335C5.97224 5.8335 5.38196 5.59044 4.89585 5.10433C4.40974 4.61822 4.16669 4.02794 4.16669 3.3335C4.16669 2.63905 4.40974 2.04877 4.89585 1.56266C5.38196 1.07655 5.97224 0.833496 6.66669 0.833496C7.19446 0.833496 7.67363 0.989746 8.10419 1.30225C8.53474 1.61475 8.84724 2.01405 9.04169 2.50016H15.8334V4.16683H15V5.8335H13.3334V4.16683H9.04169C8.84724 4.65294 8.53474 5.05225 8.10419 5.36475C7.67363 5.67725 7.19446 5.8335 6.66669 5.8335ZM6.66669 4.16683C6.9028 4.16683 7.10071 4.08697 7.26044 3.92725C7.42016 3.76752 7.50002 3.56961 7.50002 3.3335C7.50002 3.09738 7.42016 2.89947 7.26044 2.73975C7.10071 2.58002 6.9028 2.50016 6.66669 2.50016C6.43058 2.50016 6.23266 2.58002 6.07294 2.73975C5.91322 2.89947 5.83335 3.09738 5.83335 3.3335C5.83335 3.56961 5.91322 3.76752 6.07294 3.92725C6.23266 4.08697 6.43058 4.16683 6.66669 4.16683ZM7.50002 14.5835C7.73613 14.5835 7.93405 14.5036 8.09377 14.3439C8.25349 14.1842 8.33335 13.9863 8.33335 13.7502C8.33335 13.5141 8.25349 13.3161 8.09377 13.1564C7.93405 12.9967 7.73613 12.9168 7.50002 12.9168C7.26391 12.9168 7.06599 12.9967 6.90627 13.1564C6.74655 13.3161 6.66669 13.5141 6.66669 13.7502C6.66669 13.9863 6.74655 14.1842 6.90627 14.3439C7.06599 14.5036 7.26391 14.5835 7.50002 14.5835ZM12.5 14.5835C12.7361 14.5835 12.934 14.5036 13.0938 14.3439C13.2535 14.1842 13.3334 13.9863 13.3334 13.7502C13.3334 13.5141 13.2535 13.3161 13.0938 13.1564C12.934 12.9967 12.7361 12.9168 12.5 12.9168C12.2639 12.9168 12.066 12.9967 11.9063 13.1564C11.7465 13.3161 11.6667 13.5141 11.6667 13.7502C11.6667 13.9863 11.7465 14.1842 11.9063 14.3439C12.066 14.5036 12.2639 14.5835 12.5 14.5835ZM4.16669 12.1668L5.54169 8.16683C5.61113 7.97238 5.72571 7.81266 5.88544 7.68766C6.04516 7.56266 6.22224 7.50016 6.41669 7.50016H13.5834C13.7778 7.50016 13.9549 7.56266 14.1146 7.68766C14.2743 7.81266 14.3889 7.97238 14.4584 8.16683L15.8334 12.1668V17.6668C15.8334 17.8613 15.7709 18.021 15.6459 18.146C15.5209 18.271 15.3611 18.3335 15.1667 18.3335H14.8334C14.6389 18.3335 14.4792 18.271 14.3542 18.146C14.2292 18.021 14.1667 17.8613 14.1667 17.6668V16.6668H5.83335V17.6668C5.83335 17.8613 5.77085 18.021 5.64585 18.146C5.52085 18.271 5.36113 18.3335 5.16669 18.3335H4.83335C4.63891 18.3335 4.47919 18.271 4.35419 18.146C4.22919 18.021 4.16669 17.8613 4.16669 17.6668V12.1668ZM6.37502 10.8335H13.625L13.0417 9.16683H6.95835L6.37502 10.8335ZM5.83335 15.0002H14.1667V12.5002H5.83335V15.0002Z" fill="#252C40"/>
</g>
</svg>
