<svg width="43" height="43" viewBox="0 0 43 43" fill="none" xmlns="http://www.w3.org/2000/svg">
<g id="format_color_fill">
<mask id="mask0_75_29599" style="mask-type:alpha" maskUnits="userSpaceOnUse" x="0" y="0" width="43" height="43">
<rect id="Bounding box" width="42.24" height="42.24" fill="#D9D9D9"/>
</mask>
<g mask="url(#mask0_75_29599)">
<path id="format_color_fill_2" d="M10.868 2.464L13.376 0L28.468 15.092C29.1427 15.7667 29.48 16.6027 29.48 17.6C29.48 18.5973 29.1427 19.4333 28.468 20.108L20.108 28.468C19.4334 29.1427 18.5974 29.48 17.6 29.48C16.6027 29.48 15.7667 29.1427 15.092 28.468L6.73202 20.108C6.05735 19.4333 5.72002 18.5973 5.72002 17.6C5.72002 16.6027 6.05735 15.7667 6.73202 15.092L15.092 6.688L10.868 2.464ZM17.6 9.196L9.19602 17.6H26.004L17.6 9.196ZM33.44 29.92C32.472 29.92 31.6434 29.5753 30.954 28.886C30.2647 28.1967 29.92 27.368 29.92 26.4C29.92 25.784 30.1034 25.124 30.47 24.42C30.8367 23.716 31.24 23.056 31.68 22.44C31.944 22.088 32.2227 21.7213 32.516 21.34C32.8094 20.9587 33.1174 20.592 33.44 20.24C33.7627 20.592 34.0707 20.9587 34.364 21.34C34.6574 21.7213 34.936 22.088 35.2 22.44C35.64 23.056 36.0434 23.716 36.41 24.42C36.7767 25.124 36.96 25.784 36.96 26.4C36.96 27.368 36.6154 28.1967 35.926 28.886C35.2367 29.5753 34.408 29.92 33.44 29.92ZM3.52002 42.24V35.2H38.72V42.24H3.52002Z" fill="#252C40"/>
</g>
</g>
</svg>
