<svg width="33" height="32" viewBox="0 0 33 32" fill="none" xmlns="http://www.w3.org/2000/svg">
<g id="schedule">
<mask id="mask0_149_1943" style="mask-type:alpha" maskUnits="userSpaceOnUse" x="0" y="0" width="33" height="32">
<rect id="Bounding box" x="0.689453" width="32" height="32" fill="#D9D9D9"/>
</mask>
<g mask="url(#mask0_149_1943)">
<path id="schedule_2" d="M19.9895 20.7L21.3895 19.3L17.6895 15.6V11H15.6895V16.4L19.9895 20.7ZM16.6895 26C15.3061 26 14.0061 25.7375 12.7895 25.2125C11.5728 24.6875 10.5145 23.975 9.61445 23.075C8.71445 22.175 8.00195 21.1167 7.47695 19.9C6.95195 18.6833 6.68945 17.3833 6.68945 16C6.68945 14.6167 6.95195 13.3167 7.47695 12.1C8.00195 10.8833 8.71445 9.825 9.61445 8.925C10.5145 8.025 11.5728 7.3125 12.7895 6.7875C14.0061 6.2625 15.3061 6 16.6895 6C18.0728 6 19.3728 6.2625 20.5895 6.7875C21.8061 7.3125 22.8645 8.025 23.7645 8.925C24.6645 9.825 25.377 10.8833 25.902 12.1C26.427 13.3167 26.6895 14.6167 26.6895 16C26.6895 17.3833 26.427 18.6833 25.902 19.9C25.377 21.1167 24.6645 22.175 23.7645 23.075C22.8645 23.975 21.8061 24.6875 20.5895 25.2125C19.3728 25.7375 18.0728 26 16.6895 26ZM16.6895 24C18.9061 24 20.7936 23.2208 22.352 21.6625C23.9103 20.1042 24.6895 18.2167 24.6895 16C24.6895 13.7833 23.9103 11.8958 22.352 10.3375C20.7936 8.77917 18.9061 8 16.6895 8C14.4728 8 12.5853 8.77917 11.027 10.3375C9.46862 11.8958 8.68945 13.7833 8.68945 16C8.68945 18.2167 9.46862 20.1042 11.027 21.6625C12.5853 23.2208 14.4728 24 16.6895 24Z" fill="#4CAF50"/>
</g>
</g>
</svg>
