<svg width="48" height="34" viewBox="0 0 48 34" fill="none" xmlns="http://www.w3.org/2000/svg">
<g id="Capa_1" clip-path="url(#clip0_75_29572)">
<path id="Vector" d="M47.9998 28.0983C47.9409 28.2922 47.8821 28.4862 47.8245 28.6801C47.3636 30.2442 46.0336 31.385 44.4306 31.5282C43.733 31.5903 43.0242 31.5992 42.3242 31.5612C40.9416 31.4851 40.0361 30.4914 40.0086 29.0819C40.0048 28.8614 40.0086 28.6408 40.0086 28.3746H38.4068C38.4068 29.0185 38.4106 29.6612 38.4068 30.3038C38.403 30.8095 38.4268 31.3191 38.3742 31.8198C38.239 33.0962 37.2759 33.9784 36.0061 33.9872C33.9748 34.0012 31.9434 33.9923 29.9134 33.9923C26.383 33.9923 22.8514 33.9822 19.321 33.9999C18.4682 34.005 17.7819 33.7274 17.1883 33.1114C16.0436 31.9224 14.8652 30.7665 13.7168 29.5813C13.4087 29.2632 13.0781 29.125 12.6372 29.1352C11.6842 29.158 10.7312 29.1453 9.77812 29.1415C8.19766 29.1364 7.21707 28.1389 7.21332 26.5291C7.20956 25.2667 7.21332 24.0055 7.21332 22.7088H4.79879C4.79879 23.5935 4.8038 24.4745 4.79628 25.3541C4.79253 25.7166 4.81131 26.0893 4.73617 26.4391C4.46566 27.6864 3.35358 28.4494 2.07744 28.3011C0.896472 28.1617 0.00855662 27.1388 0.00605192 25.8726C-0.00146217 22.0142 0.00229488 18.1559 0.00229488 14.2975C0.00229488 13.8235 -0.00772391 13.3482 0.00730427 12.8741C0.0486318 11.5496 1.10186 10.5279 2.41056 10.5305C3.72052 10.533 4.76247 11.5559 4.79002 12.8906C4.81131 13.949 4.8038 15.0086 4.81131 16.0683C4.81131 16.0809 4.82759 16.0936 4.86391 16.1456H7.20956C7.20956 15.1785 7.2033 14.219 7.21332 13.2594C7.21707 12.9464 7.22334 12.6219 7.29973 12.3215C7.56648 11.2682 8.44312 10.5647 9.51137 10.5368C10.2766 10.5165 11.043 10.5343 11.8082 10.5267C12.4769 10.5203 12.7362 10.277 12.8126 9.60518C12.9804 8.13485 13.8808 7.30209 15.336 7.29069C16.4456 7.28181 17.554 7.28815 18.6635 7.28815C18.8301 7.28815 18.9979 7.28815 19.1858 7.28815V4.85324C19.0092 4.85324 18.8439 4.85324 18.6786 4.85324C17.5377 4.85324 16.398 4.86085 15.2571 4.85071C13.852 4.8393 12.8 3.77965 12.8113 2.40312C12.8226 1.04434 13.8595 0.00750647 15.2509 0.00497142C20.5471 -0.0026337 25.8432 -0.0026337 31.1394 0.00497142C32.5571 0.00623895 33.5965 1.05701 33.589 2.43861C33.5815 3.81641 32.5333 4.84183 31.1094 4.85071C29.8295 4.85831 28.5483 4.85197 27.2321 4.85197V7.26534C27.3924 7.27294 27.559 7.28562 27.7255 7.28688C28.5846 7.28942 29.4438 7.27928 30.3029 7.29069C31.8007 7.31097 32.7888 8.31991 32.8038 9.8308C32.8088 10.3049 32.7975 10.7802 32.8076 11.2542C32.8188 11.8221 33.1144 12.1313 33.6817 12.1428C34.4156 12.158 35.1507 12.1428 35.8846 12.1478C37.3811 12.1592 38.3768 13.1466 38.4005 14.6715C38.4181 15.7945 38.4043 16.9162 38.4043 18.0393C38.4043 18.2104 38.4043 18.3828 38.4043 18.583H40.0123C40.0123 18.2636 40.001 17.9658 40.0148 17.6704C40.0687 16.517 40.9115 15.527 42.0474 15.4168C42.8664 15.3382 43.7105 15.328 44.5258 15.4282C46.229 15.6373 47.4888 16.8516 47.9021 18.545C47.9234 18.6325 47.966 18.7149 47.9985 18.7998V28.0983H47.9998ZM27.5164 32.3749C30.2653 32.3749 33.0142 32.3749 35.7631 32.3749C36.5371 32.3749 36.7925 32.1113 36.8013 31.3178C36.8051 31.0174 36.8013 30.717 36.8013 30.4166C36.8013 25.2477 36.8013 20.0774 36.8013 14.9085C36.8013 13.9921 36.5721 13.7665 35.6604 13.7652C34.9892 13.7652 34.3166 13.7741 33.6454 13.7626C32.2377 13.7386 31.2309 12.7182 31.2083 11.3024C31.202 10.8917 31.2083 10.4798 31.2071 10.0691C31.2058 9.15014 30.9741 8.90931 30.0799 8.90931C25.2221 8.90931 20.3642 8.90931 15.5064 8.90931C14.6698 8.90931 14.492 9.06775 14.3893 9.89417C14.2164 11.2745 13.2672 12.1313 11.8858 12.1453C11.1833 12.1529 10.4794 12.1428 9.77687 12.1478C9.08182 12.1529 8.80756 12.4241 8.80756 13.1187C8.80505 17.5931 8.80505 22.0662 8.80756 26.5405C8.80756 27.2301 9.09434 27.5203 9.77562 27.5241C10.76 27.5292 11.7443 27.5431 12.7274 27.5203C13.5439 27.5013 14.2089 27.7865 14.7788 28.3759C15.9272 29.561 17.1044 30.717 18.249 31.906C18.5821 32.252 18.9353 32.3863 19.4087 32.3838C22.1112 32.3673 24.8126 32.3762 27.5151 32.3762L27.5164 32.3749ZM41.6078 23.4516C41.6078 25.3009 41.6041 27.1515 41.6103 29.0008C41.6116 29.6498 41.8808 29.9362 42.5158 29.9489C43.0931 29.9603 43.6742 29.973 44.2478 29.921C45.4475 29.812 46.3793 28.8398 46.3905 27.6217C46.4181 24.8547 46.4193 22.0877 46.3905 19.3207C46.3768 18.038 45.326 17.0379 44.0574 17.0012C43.589 16.9872 43.1206 16.9961 42.651 16.9974C41.8683 16.9999 41.6103 17.2559 41.6091 18.0443C41.6066 19.8468 41.6091 21.6492 41.6091 23.4516H41.6078ZM23.192 1.61979C20.6485 1.61979 18.105 1.61979 15.5602 1.61979C15.4037 1.61979 15.2446 1.60712 15.0931 1.63247C14.7136 1.69585 14.4719 1.9202 14.4256 2.31566C14.378 2.72634 14.5446 3.03308 14.934 3.1687C15.1056 3.22828 15.301 3.23335 15.4851 3.23335C20.6347 3.23715 25.7856 3.23588 30.9353 3.23588C31.0605 3.23588 31.187 3.24222 31.3085 3.22194C31.7806 3.14082 32.0637 2.71873 31.971 2.24848C31.8908 1.84034 31.5828 1.62106 31.0568 1.62106C28.4344 1.61853 25.8132 1.62106 23.1908 1.61979H23.192ZM3.19829 19.464C3.19829 17.4093 3.19829 15.3547 3.19829 13.3C3.19829 13.158 3.2058 13.0148 3.18952 12.8741C3.14444 12.4596 2.84888 12.1744 2.45314 12.1516C2.03987 12.1275 1.69046 12.4001 1.61908 12.8209C1.59278 12.9743 1.60154 13.1352 1.60154 13.2937C1.60154 17.3865 1.60154 21.4793 1.60154 25.5734C1.60154 25.7154 1.59278 25.8599 1.61281 25.9993C1.67543 26.429 2.00605 26.7066 2.42308 26.6977C2.84387 26.6888 3.14945 26.3986 3.19203 25.9587C3.2058 25.818 3.19954 25.6748 3.19954 25.5329C3.19954 23.5099 3.19954 21.4869 3.19954 19.464H3.19829ZM20.8226 7.25393H25.5652V4.88366H20.8226V7.25393ZM39.966 26.68V20.2625H38.4394V26.68H39.966ZM7.17825 21.0268V17.8479H4.83636V21.0268H7.17825Z" fill="#252C40" stroke="#252C40"/>
</g>
<defs>
<clipPath id="clip0_75_29572">
<rect width="48" height="34" fill="white"/>
</clipPath>
</defs>
</svg>
