<svg width="17" height="18" viewBox="0 0 17 18" fill="none" xmlns="http://www.w3.org/2000/svg">
<path id="Vector" d="M2.97817 0.844727C1.3284 0.844727 0 2.17312 0 3.82289V14.1769C0 15.8267 1.3284 17.1551 2.97817 17.1551H8.58996V10.7787H6.90388V8.48306H8.58996V6.52174C8.58996 4.98083 9.58618 3.566 11.8811 3.566C12.8102 3.566 13.4973 3.65521 13.4973 3.65521L13.4433 5.799C13.4433 5.799 12.7426 5.79238 11.9779 5.79238C11.1503 5.79238 11.0176 6.17368 11.0176 6.80668V8.48307H13.509L13.4005 10.7788H11.0176V17.1551H13.3322C14.9819 17.1551 16.3103 15.8267 16.3103 14.1769V3.82291C16.3103 2.17314 14.9819 0.844743 13.3322 0.844743H2.97815L2.97817 0.844727Z" fill="#8994AF"/>
</svg>
