<svg width="16" height="15" viewBox="0 0 16 15" fill="none" xmlns="http://www.w3.org/2000/svg">
<path d="M7.99988 14.0125L6.91238 13.0375C5.64988 11.9 4.60613 10.9188 3.78113 10.0938C2.95613 9.26875 2.29988 8.52813 1.81238 7.87188C1.32488 7.21563 0.984253 6.6125 0.790503 6.0625C0.596753 5.5125 0.499878 4.95 0.499878 4.375C0.499878 3.2 0.893628 2.21875 1.68113 1.43125C2.46863 0.64375 3.44988 0.25 4.62488 0.25C5.27488 0.25 5.89363 0.3875 6.48113 0.6625C7.06863 0.9375 7.57488 1.325 7.99988 1.825C8.42488 1.325 8.93113 0.9375 9.51863 0.6625C10.1061 0.3875 10.7249 0.25 11.3749 0.25C12.5499 0.25 13.5311 0.64375 14.3186 1.43125C15.1061 2.21875 15.4999 3.2 15.4999 4.375C15.4999 4.95 15.403 5.5125 15.2093 6.0625C15.0155 6.6125 14.6749 7.21563 14.1874 7.87188C13.6999 8.52813 13.0436 9.26875 12.2186 10.0938C11.3936 10.9188 10.3499 11.9 9.08738 13.0375L7.99988 14.0125ZM7.99988 11.9875C9.19988 10.9125 10.1874 9.99063 10.9624 9.22188C11.7374 8.45313 12.3499 7.78438 12.7999 7.21563C13.2499 6.64688 13.5624 6.14063 13.7374 5.69688C13.9124 5.25313 13.9999 4.8125 13.9999 4.375C13.9999 3.625 13.7499 3 13.2499 2.5C12.7499 2 12.1249 1.75 11.3749 1.75C10.7874 1.75 10.2436 1.91563 9.74363 2.24688C9.24363 2.57813 8.89988 3 8.71238 3.5125H7.28738C7.09988 3 6.75613 2.57813 6.25613 2.24688C5.75613 1.91563 5.21238 1.75 4.62488 1.75C3.87488 1.75 3.24988 2 2.74988 2.5C2.24988 3 1.99988 3.625 1.99988 4.375C1.99988 4.8125 2.08738 5.25313 2.26238 5.69688C2.43738 6.14063 2.74988 6.64688 3.19988 7.21563C3.64988 7.78438 4.26238 8.45313 5.03738 9.22188C5.81238 9.99063 6.79988 10.9125 7.99988 11.9875Z" fill="#ADADAD"/>
</svg>
