<svg width="47" height="39" viewBox="0 0 47 39" fill="none" xmlns="http://www.w3.org/2000/svg">
<path d="M7.05 39V20.6471H0L23.5 0L32.9 8.25882V2.29412H39.95V14.4529L47 20.6471H39.95V39H25.85V25.2353H21.15V39H7.05ZM11.75 34.4118H16.45V20.6471H30.55V34.4118H35.25V16.5176L23.5 6.19412L11.75 16.5176V34.4118ZM18.8 16.1162H28.2C28.2 14.8926 27.73 13.889 26.79 13.1051C25.85 12.3213 24.7533 11.9294 23.5 11.9294C22.2467 11.9294 21.15 12.3213 20.21 13.1051C19.27 13.889 18.8 14.8926 18.8 16.1162Z" fill="#FF2625"/>
</svg>
