<svg width="17" height="18" viewBox="0 0 17 18" fill="none" xmlns="http://www.w3.org/2000/svg">
<path id="Vector" fill-rule="evenodd" clip-rule="evenodd" d="M4.79302 0.893658C5.66266 0.853623 5.93993 0.844727 8.15517 0.844727C10.3704 0.844727 10.6477 0.854364 11.5166 0.893658C12.3855 0.932951 12.9786 1.07159 13.4976 1.2725C14.041 1.47786 14.534 1.79888 14.9418 2.21405C15.3569 2.62107 15.6772 3.11335 15.8818 3.65752C16.0835 4.17649 16.2214 4.76959 16.2614 5.637C16.3014 6.50812 16.3103 6.7854 16.3103 8.9999C16.3103 11.2151 16.3007 11.4924 16.2614 12.3621C16.2221 13.2295 16.0835 13.8226 15.8818 14.3415C15.6772 14.8858 15.3564 15.3789 14.9418 15.7865C14.534 16.2017 14.041 16.5219 13.4976 16.7266C12.9786 16.9282 12.3855 17.0661 11.5181 17.1061C10.6477 17.1462 10.3704 17.1551 8.15517 17.1551C5.93993 17.1551 5.66266 17.1454 4.79302 17.1061C3.9256 17.0668 3.3325 16.9282 2.81353 16.7266C2.2693 16.5219 1.77621 16.2011 1.36859 15.7865C0.953695 15.3792 0.63263 14.8864 0.427776 14.3423C0.226862 13.8233 0.0889655 13.2302 0.048931 12.3628C0.00889654 11.4917 0 11.2144 0 8.9999C0 6.78466 0.00963792 6.50738 0.048931 5.63849C0.0882241 4.76959 0.226862 4.17649 0.427776 3.65752C0.632932 3.11341 0.954243 2.62056 1.36933 2.21331C1.77637 1.79851 2.26897 1.47745 2.81279 1.2725C3.33176 1.07159 3.92486 0.933692 4.79228 0.893658H4.79302ZM11.4506 2.36159C10.5906 2.3223 10.3326 2.31414 8.15517 2.31414C5.97774 2.31414 5.71974 2.3223 4.85974 2.36159C4.06424 2.39792 3.63276 2.53062 3.3451 2.64257C2.96478 2.79085 2.69269 2.96655 2.40726 3.25199C2.13669 3.51521 1.92846 3.83566 1.79784 4.18983C1.6859 4.47749 1.55319 4.90897 1.51686 5.70447C1.47757 6.56447 1.46941 6.82247 1.46941 8.9999C1.46941 11.1773 1.47757 11.4353 1.51686 12.2953C1.55319 13.0908 1.6859 13.5223 1.79784 13.81C1.92833 14.1636 2.13666 14.4846 2.40726 14.7478C2.67045 15.0184 2.99147 15.2267 3.3451 15.3572C3.63276 15.4692 4.06424 15.6019 4.85974 15.6382C5.71974 15.6775 5.977 15.6857 8.15517 15.6857C10.3333 15.6857 10.5906 15.6775 11.4506 15.6382C12.2461 15.6019 12.6776 15.4692 12.9652 15.3572C13.3456 15.209 13.6177 15.0332 13.9031 14.7478C14.1737 14.4846 14.382 14.1636 14.5125 13.81C14.6244 13.5223 14.7572 13.0908 14.7935 12.2953C14.8328 11.4353 14.8409 11.1773 14.8409 8.9999C14.8409 6.82247 14.8328 6.56447 14.7935 5.70447C14.7572 4.90897 14.6244 4.47749 14.5125 4.18983C14.3642 3.8095 14.1885 3.53742 13.9031 3.25199C13.6398 2.98143 13.3194 2.77321 12.9652 2.64257C12.6776 2.53062 12.2461 2.39792 11.4506 2.36159ZM7.11353 11.5139C7.69526 11.7561 8.34302 11.7888 8.94617 11.6064C9.54932 11.424 10.0704 11.0379 10.4205 10.514C10.7706 9.99006 10.928 9.36086 10.8657 8.73382C10.8034 8.10679 10.5254 7.52083 10.0791 7.07602C9.79454 6.79168 9.45052 6.57397 9.07176 6.43854C8.69301 6.30312 8.28894 6.25336 7.88864 6.29284C7.48835 6.33232 7.10179 6.46006 6.75679 6.66687C6.41179 6.87368 6.11693 7.15442 5.89345 7.48886C5.66997 7.8233 5.52342 8.20313 5.46435 8.60101C5.40528 8.99889 5.43516 9.40491 5.55185 9.78985C5.66853 10.1748 5.86912 10.5291 6.13915 10.8272C6.40919 11.1253 6.74197 11.3598 7.11353 11.5139ZM5.19114 6.03586C5.58038 5.64662 6.04248 5.33786 6.55105 5.1272C7.05962 4.91654 7.6047 4.80812 8.15517 4.80812C8.70564 4.80812 9.25073 4.91654 9.7593 5.1272C10.2679 5.33786 10.73 5.64662 11.1192 6.03586C11.5084 6.42511 11.8172 6.88721 12.0279 7.39578C12.2385 7.90435 12.347 8.44943 12.347 8.9999C12.347 9.55037 12.2385 10.0955 12.0279 10.604C11.8172 11.1126 11.5084 11.5747 11.1192 11.9639C10.3331 12.75 9.2669 13.1917 8.15517 13.1917C7.04344 13.1917 5.97725 12.75 5.19114 11.9639C4.40503 11.1778 3.96339 10.1116 3.96339 8.9999C3.96339 7.88817 4.40503 6.82198 5.19114 6.03586ZM13.2766 5.43238C13.3731 5.34139 13.4503 5.23197 13.5037 5.1106C13.5571 4.98923 13.5856 4.85838 13.5876 4.7258C13.5895 4.59321 13.5648 4.46158 13.515 4.33871C13.4651 4.21583 13.3911 4.10421 13.2974 4.01045C13.2036 3.91668 13.092 3.84268 12.9691 3.79283C12.8462 3.74298 12.7146 3.71829 12.582 3.72023C12.4494 3.72216 12.3186 3.75068 12.1972 3.80409C12.0758 3.8575 11.9664 3.93472 11.8754 4.03117C11.6985 4.21877 11.6016 4.46794 11.6053 4.7258C11.6091 4.98365 11.7132 5.2299 11.8955 5.41225C12.0779 5.5946 12.3241 5.69871 12.582 5.70247C12.8399 5.70622 13.089 5.60934 13.2766 5.43238Z" fill="#8994AF"/>
</svg>
