<svg width="10" height="17" viewBox="0 0 10 17" fill="none" xmlns="http://www.w3.org/2000/svg">
<path d="M3.7 17.5V15.35C2.81667 15.15 2.05417 14.7667 1.4125 14.2C0.770833 13.6333 0.3 12.8333 0 11.8L1.85 11.05C2.1 11.85 2.47083 12.4583 2.9625 12.875C3.45417 13.2917 4.1 13.5 4.9 13.5C5.58333 13.5 6.1625 13.3458 6.6375 13.0375C7.1125 12.7292 7.35 12.25 7.35 11.6C7.35 11.0167 7.16667 10.5542 6.8 10.2125C6.43333 9.87083 5.58333 9.48333 4.25 9.05C2.81667 8.6 1.83333 8.0625 1.3 7.4375C0.766667 6.8125 0.5 6.05 0.5 5.15C0.5 4.06667 0.85 3.225 1.55 2.625C2.25 2.025 2.96667 1.68333 3.7 1.6V-0.5H5.7V1.6C6.53333 1.73333 7.22083 2.0375 7.7625 2.5125C8.30417 2.9875 8.7 3.56667 8.95 4.25L7.1 5.05C6.9 4.51667 6.61667 4.11667 6.25 3.85C5.88333 3.58333 5.38333 3.45 4.75 3.45C4.01667 3.45 3.45833 3.6125 3.075 3.9375C2.69167 4.2625 2.5 4.66667 2.5 5.15C2.5 5.7 2.75 6.13333 3.25 6.45C3.75 6.76667 4.61667 7.1 5.85 7.45C7 7.78333 7.87083 8.3125 8.4625 9.0375C9.05417 9.7625 9.35 10.6 9.35 11.55C9.35 12.7333 9 13.6333 8.3 14.25C7.6 14.8667 6.73333 15.25 5.7 15.4V17.5H3.7Z" fill="#FF2625"/>
</svg>
