<svg width="41" height="41" viewBox="0 0 41 41" fill="none" xmlns="http://www.w3.org/2000/svg">
<path d="M25.1439 39.8198C24.3571 40.6066 23.3821 41 22.219 41C21.0559 41 20.0809 40.6066 19.2941 39.8198L1.23154 21.7572C0.855236 21.3809 0.555903 20.9362 0.333542 20.423C0.111181 19.9099 0 19.3625 0 18.781V4.10513C0 2.97622 0.401961 2.0098 1.20588 1.20588C2.0098 0.401961 2.97622 0 4.10513 0H18.781C19.3625 0 19.9099 0.111181 20.423 0.333542C20.9362 0.555903 21.3809 0.855236 21.7572 1.23154L39.8198 19.3454C40.6066 20.1322 41 21.0987 41 22.2447C41 23.3907 40.6066 24.3571 39.8198 25.1439L25.1439 39.8198ZM22.219 36.9462L36.8949 22.2703L18.781 4.10513H4.10513V18.781L22.219 36.9462ZM9.23655 12.3154C10.0918 12.3154 10.8187 12.0161 11.4174 11.4174C12.0161 10.8187 12.3154 10.0918 12.3154 9.23655C12.3154 8.38131 12.0161 7.65436 11.4174 7.05569C10.8187 6.45703 10.0918 6.1577 9.23655 6.1577C8.38131 6.1577 7.65436 6.45703 7.05569 7.05569C6.45703 7.65436 6.1577 8.38131 6.1577 9.23655C6.1577 10.0918 6.45703 10.8187 7.05569 11.4174C7.65436 12.0161 8.38131 12.3154 9.23655 12.3154Z" fill="#FF2625"/>
</svg>
