<svg width="20" height="20" viewBox="0 0 20 20" fill="none" xmlns="http://www.w3.org/2000/svg">
<path d="M10.975 19.9498V17.9498C11.675 17.8498 12.3542 17.6581 13.0125 17.3748C13.6709 17.0915 14.2917 16.7331 14.875 16.2998L16.325 17.7498C15.5417 18.3665 14.7 18.8623 13.8 19.2373C12.9 19.6123 11.9584 19.8498 10.975 19.9498ZM17.725 16.2998L16.325 14.8998C16.7584 14.3498 17.1084 13.7456 17.375 13.0873C17.6417 12.429 17.825 11.7331 17.925 10.9998H19.975C19.8417 12.0331 19.5875 12.9956 19.2125 13.8873C18.8375 14.779 18.3417 15.5831 17.725 16.2998ZM17.925 8.9998C17.825 8.2498 17.6417 7.54564 17.375 6.8873C17.1084 6.22897 16.7584 5.63314 16.325 5.0998L17.725 3.6998C18.3584 4.43314 18.8709 5.2498 19.2625 6.1498C19.6542 7.0498 19.8917 7.9998 19.975 8.9998H17.925ZM8.97502 19.9498C6.42502 19.6498 4.29586 18.554 2.58752 16.6623C0.879191 14.7706 0.0250244 12.5498 0.0250244 9.9998C0.0250244 7.41647 0.879191 5.18314 2.58752 3.2998C4.29586 1.41647 6.42502 0.333138 8.97502 0.0498047V2.0498C6.97502 2.33314 5.31669 3.2248 4.00002 4.7248C2.68336 6.2248 2.02502 7.98314 2.02502 9.9998C2.02502 11.9998 2.68336 13.7498 4.00002 15.2498C5.31669 16.7498 6.97502 17.6498 8.97502 17.9498V19.9498ZM14.925 3.6998C14.325 3.2498 13.6917 2.88314 13.025 2.5998C12.3584 2.31647 11.675 2.13314 10.975 2.0498V0.0498047C11.9584 0.133138 12.9 0.362305 13.8 0.737305C14.7 1.1123 15.5417 1.61647 16.325 2.2498L14.925 3.6998ZM10 14.9998C8.65002 13.8498 7.64586 12.7873 6.98752 11.8123C6.32919 10.8373 6.00002 9.93314 6.00002 9.0998C6.00002 7.8498 6.40419 6.85397 7.21252 6.1123C8.02086 5.37064 8.95002 4.9998 10 4.9998C11.05 4.9998 11.9792 5.37064 12.7875 6.1123C13.5959 6.85397 14 7.8498 14 9.0998C14 9.93314 13.6709 10.8373 13.0125 11.8123C12.3542 12.7873 11.35 13.8498 10 14.9998ZM10 9.9998C10.3 9.9998 10.5542 9.89564 10.7625 9.6873C10.9709 9.47897 11.075 9.2248 11.075 8.9248C11.075 8.64147 10.9709 8.39147 10.7625 8.1748C10.5542 7.95814 10.3 7.8498 10 7.8498C9.70002 7.8498 9.44586 7.95814 9.23752 8.1748C9.02919 8.39147 8.92502 8.64147 8.92502 8.9248C8.92502 9.2248 9.02919 9.47897 9.23752 9.6873C9.44586 9.89564 9.70002 9.9998 10 9.9998Z" fill="#FF2625"/>
</svg>
