<svg width="48" height="48" viewBox="0 0 48 48" fill="none" xmlns="http://www.w3.org/2000/svg">
<g id="shield">
<mask id="mask0_75_29620" style="mask-type:alpha" maskUnits="userSpaceOnUse" x="0" y="0" width="48" height="48">
<rect id="Bounding box" width="47.2635" height="47.2635" fill="#D9D9D9"/>
</mask>
<g mask="url(#mask0_75_29620)">
<path id="shield_2" d="M23.6317 43.325C19.0695 42.1762 15.3031 39.5586 12.3328 35.4723C9.36239 31.386 7.8772 26.8484 7.8772 21.8595V9.84666L23.6317 3.93872L39.3862 9.84666V21.8595C39.3862 26.8484 37.901 31.386 34.9306 35.4723C31.9602 39.5586 28.1939 42.1762 23.6317 43.325ZM23.6317 39.1894C27.0452 38.1063 29.8678 35.94 32.0997 32.6907C34.3316 29.4413 35.4476 25.8309 35.4476 21.8595V12.5545L23.6317 8.12351L11.8158 12.5545V21.8595C11.8158 25.8309 12.9318 29.4413 15.1637 32.6907C17.3955 35.94 20.2182 38.1063 23.6317 39.1894Z" fill="#252C40"/>
</g>
</g>
</svg>
