<svg width="25" height="18" viewBox="0 0 25 18" fill="none" xmlns="http://www.w3.org/2000/svg">
<path d="M14.3501 13H16.3501V10H19.3501V8H16.3501V5H14.3501V8H11.3501V10H14.3501V13ZM6.3501 17.5C4.53343 16.8667 3.07926 15.7708 1.9876 14.2125C0.895931 12.6542 0.350098 10.9167 0.350098 9C0.350098 7.08333 0.895931 5.34583 1.9876 3.7875C3.07926 2.22917 4.53343 1.13333 6.3501 0.5V2.7C5.11676 3.28333 4.14176 4.14167 3.4251 5.275C2.70843 6.40833 2.3501 7.65 2.3501 9C2.3501 10.35 2.70843 11.5917 3.4251 12.725C4.14176 13.8583 5.11676 14.7167 6.3501 15.3V17.5ZM15.3501 18C14.1001 18 12.9293 17.7625 11.8376 17.2875C10.7459 16.8125 9.79593 16.1708 8.9876 15.3625C8.17926 14.5542 7.5376 13.6042 7.0626 12.5125C6.5876 11.4208 6.3501 10.25 6.3501 9C6.3501 7.75 6.5876 6.57917 7.0626 5.4875C7.5376 4.39583 8.17926 3.44583 8.9876 2.6375C9.79593 1.82917 10.7459 1.1875 11.8376 0.7125C12.9293 0.2375 14.1001 0 15.3501 0C16.6001 0 17.7709 0.2375 18.8626 0.7125C19.9543 1.1875 20.9043 1.82917 21.7126 2.6375C22.5209 3.44583 23.1626 4.39583 23.6376 5.4875C24.1126 6.57917 24.3501 7.75 24.3501 9C24.3501 10.25 24.1126 11.4208 23.6376 12.5125C23.1626 13.6042 22.5209 14.5542 21.7126 15.3625C20.9043 16.1708 19.9543 16.8125 18.8626 17.2875C17.7709 17.7625 16.6001 18 15.3501 18ZM15.3501 16C17.3001 16 18.9543 15.3208 20.3126 13.9625C21.6709 12.6042 22.3501 10.95 22.3501 9C22.3501 7.05 21.6709 5.39583 20.3126 4.0375C18.9543 2.67917 17.3001 2 15.3501 2C13.4001 2 11.7459 2.67917 10.3876 4.0375C9.02926 5.39583 8.3501 7.05 8.3501 9C8.3501 10.95 9.02926 12.6042 10.3876 13.9625C11.7459 15.3208 13.4001 16 15.3501 16Z" fill="#FF2625"/>
</svg>
