<svg width="46" height="46" viewBox="0 0 46 46" fill="none" xmlns="http://www.w3.org/2000/svg">
<path id="Vector" d="M32.21 20.7619C30.2901 22.932 28.4257 25.0393 26.4762 27.2428C26.8572 27.2428 27.1236 27.2428 27.3912 27.2428C28.0694 27.2428 28.7476 27.2354 29.4258 27.2477C29.8758 27.2563 30.1163 27.4869 30.1187 27.9333C30.1274 29.5979 30.1274 31.2625 30.1187 32.9259C30.1163 33.3846 29.8647 33.6189 29.3826 33.6238C28.5046 33.6336 27.6255 33.6386 26.7475 33.6201C26.4701 33.6152 26.3504 33.7052 26.2567 33.969C26.0372 34.5905 25.7734 35.1959 25.512 35.847C26.1495 36.4857 26.8129 37.1491 27.4738 37.8137C27.9707 38.3143 27.9744 38.6078 27.4861 39.0985C26.3985 40.1898 25.3085 41.2798 24.2172 42.3673C23.7499 42.8334 23.465 42.8346 23.0039 42.3759C22.4021 41.7791 21.7967 41.186 21.2097 40.5745C21.0285 40.3858 20.8891 40.3661 20.6536 40.477C20.1394 40.7187 19.6117 40.9345 19.0777 41.1281C18.8361 41.2156 18.7448 41.3242 18.7497 41.588C18.767 42.4512 18.7596 43.3143 18.7547 44.1774C18.751 44.7606 18.5278 44.9912 17.9445 44.9937C16.3576 44.9999 14.7694 45.0011 13.1824 44.9937C12.6041 44.9912 12.3747 44.752 12.371 44.17C12.3649 43.2008 12.3698 42.2304 12.3698 41.2933C11.683 40.9986 11.0405 40.7052 10.3808 40.4549C10.2625 40.4092 10.0356 40.4931 9.93075 40.593C9.32778 41.1663 8.74946 41.7656 8.15882 42.3513C7.67298 42.8334 7.38814 42.8346 6.90724 42.355C5.81473 41.2674 4.72469 40.1774 3.63711 39.0874C3.15621 38.6053 3.15868 38.3303 3.64451 37.8408C4.22036 37.2613 4.78758 36.6719 5.38192 36.1133C5.6199 35.8901 5.6199 35.7224 5.48303 35.4413C5.20066 34.863 4.97254 34.2588 4.70619 33.625C3.78262 33.625 2.82821 33.6275 1.87504 33.625C1.23137 33.6225 1.00572 33.4043 1.00325 32.7705C0.998321 31.2144 0.999554 29.6571 1.00325 28.101C1.00449 27.4561 1.21904 27.2452 1.86394 27.2415C2.71107 27.2378 3.55943 27.2292 4.40655 27.2465C4.66797 27.2514 4.78018 27.1639 4.86773 26.9209C5.06009 26.387 5.27711 25.8593 5.51879 25.3451C5.62977 25.1096 5.61127 24.9703 5.42261 24.789C4.80114 24.191 4.1957 23.5745 3.59026 22.9604C3.17471 22.5387 3.17471 22.2403 3.59765 21.8149C4.71729 20.6891 5.83939 19.5671 6.9652 18.4487C7.37211 18.0443 7.69888 18.0467 8.11443 18.461C8.79139 19.1343 9.45972 19.8174 10.1231 20.4869C10.8346 20.207 11.5202 19.9481 12.1935 19.6583C12.2872 19.6176 12.3599 19.4228 12.3624 19.297C12.3772 18.4339 12.3661 17.5708 12.371 16.7076C12.3747 16.096 12.5954 15.8753 13.2095 15.8741C14.7817 15.8716 16.3539 15.8716 17.9248 15.8741C18.5414 15.8741 18.751 16.0862 18.7534 16.7076C18.7571 17.6004 18.7534 18.4918 18.7534 19.5177C20.9446 17.5806 23.0569 15.7126 25.1519 13.8593C24.9065 13.7138 24.5958 13.6287 24.4651 13.4265C24.3319 13.2193 24.3479 12.8975 24.3442 12.6262C24.3319 11.6706 24.3344 10.715 24.3418 9.75942C24.3467 9.11947 24.5403 8.92958 25.1704 8.92465C25.6328 8.92095 26.0964 8.89999 26.5564 8.93204C26.8967 8.95547 27.0545 8.8297 27.1458 8.51281C27.2346 8.20578 27.3825 7.91725 27.528 7.56336C27.1039 7.15646 26.6661 6.74709 26.2407 6.32292C25.8202 5.90369 25.8153 5.59049 26.2234 5.17619C26.9818 4.40923 27.7438 3.64598 28.512 2.88766C28.9128 2.49185 29.2272 2.49062 29.6267 2.87656C30.0041 3.24031 30.358 3.62872 30.7501 3.9752C30.8524 4.06521 31.0842 4.1059 31.2125 4.05535C32.2483 3.64968 32.2446 3.64105 32.2446 2.51774C32.2446 1.50664 32.7452 1.0011 33.7465 1.0011C34.548 1.0011 35.3495 0.99863 36.151 1.0011C36.8797 1.00356 37.0684 1.19838 37.0721 1.94068C37.0721 2.12563 37.0992 2.31552 37.0672 2.49431C36.9204 3.33895 37.1732 3.91725 38.0881 4.04918C38.2521 4.07261 38.4815 4.06028 38.5937 3.96287C38.9772 3.63118 39.3188 3.2514 39.6825 2.89629C40.1018 2.48692 40.41 2.48445 40.8305 2.89999C41.5876 3.64721 42.3386 4.39937 43.0858 5.15646C43.5137 5.59049 43.5075 5.89505 43.0722 6.34018C42.727 6.69283 42.3583 7.02329 42.0365 7.39567C41.939 7.50911 41.8897 7.75818 41.9452 7.89629C42.3558 8.92958 42.3657 8.92588 43.4878 8.92588C43.7492 8.92588 44.0119 8.91971 44.2733 8.92835C44.7233 8.94314 44.9786 9.16016 44.9848 9.60159C45.0008 10.757 45.0008 11.9135 44.9848 13.0689C44.9786 13.5091 44.7209 13.7385 44.2733 13.7483C43.7184 13.7607 43.1635 13.7372 42.6098 13.7631C42.4841 13.7693 42.3028 13.8901 42.2523 14.0048C41.7923 15.0467 41.7985 15.0492 42.6222 15.8704C43.3242 16.5708 43.3259 17.2703 42.6271 17.969C42.0278 18.5683 41.431 19.1713 40.828 19.7656C40.41 20.1774 40.0993 20.1737 39.68 19.7631C39.3163 19.408 38.9501 19.0541 38.6036 18.6817C38.4371 18.5029 38.3052 18.5461 38.0894 18.5905C37.188 18.7754 36.9253 19.3205 37.0672 20.17C37.1115 20.4401 37.0795 20.7237 37.0696 21.0011C37.0548 21.4068 36.8279 21.6386 36.4296 21.6435C35.2582 21.6571 34.0868 21.6595 32.9166 21.6435C32.4505 21.6373 32.3013 21.4351 32.21 20.7619ZM17.4575 43.6817C17.4575 42.7668 17.4575 41.9049 17.4575 41.043C17.4575 40.3796 17.5783 40.2699 18.1825 40.0504C18.9742 39.7619 19.7572 39.4401 20.5204 39.0837C21.0889 38.8186 21.2566 38.8075 21.7005 39.2477C22.3306 39.8741 22.9595 40.5029 23.5292 41.0726C24.4342 40.1713 25.3147 39.2958 26.2259 38.3883C25.6353 37.8038 25.0113 37.1885 24.3911 36.5708C23.9336 36.1133 23.9435 35.9666 24.2098 35.3994C24.5674 34.6361 24.8979 33.8556 25.1852 33.064C25.4133 32.4351 25.4873 32.3377 26.1655 32.3365C27.0385 32.3365 27.9115 32.3365 28.7932 32.3365V28.5399C28.5934 28.5399 28.4257 28.5399 28.258 28.5399C27.4874 28.5399 26.7043 28.625 25.9509 28.5091C25.4515 28.4314 25.2382 28.6324 24.9731 28.9345C23.3245 30.8087 21.682 32.6879 20.01 34.5412C18.3132 36.4228 15.6251 37.0208 13.2847 36.08C10.9505 35.1417 9.44985 32.8877 9.48931 30.3661C9.51767 28.5905 10.207 27.1047 11.5239 25.9246C13.4401 24.2082 15.376 22.5128 17.2972 20.8013C17.4069 20.7039 17.5253 20.5412 17.5265 20.4092C17.529 19.9209 17.471 19.4314 17.4587 18.9431C17.4451 18.3636 17.455 17.7841 17.455 17.2119H13.6596C13.6596 18.1725 13.6534 19.096 13.6621 20.0196C13.6658 20.4203 13.466 20.6287 13.1084 20.7705C12.2107 21.1256 11.318 21.4955 10.4326 21.8803C10.1108 22.0196 9.8395 22.0134 9.58549 21.768C9.41902 21.6078 9.25749 21.4425 9.09472 21.2785C8.5793 20.7582 8.06387 20.2378 7.62243 19.7915C6.69022 20.72 5.8135 21.5942 4.91582 22.4881C5.51139 23.0775 6.13903 23.7138 6.78517 24.3316C7.14399 24.6756 7.15509 25.0048 6.93314 25.4438C6.58171 26.1417 6.25864 26.8605 6.00216 27.5979C5.68033 28.5214 5.70499 28.5399 4.71359 28.5399C3.91825 28.5399 3.12415 28.5399 2.33128 28.5399V32.3365C3.24993 32.3365 4.12665 32.3352 5.0046 32.3365C5.62114 32.3377 5.72102 32.4487 5.92817 33.0171C6.21178 33.7952 6.51512 34.5695 6.87025 35.3167C7.19208 35.9949 7.21181 36.0948 6.66926 36.6398C6.06505 37.2465 5.45837 37.8519 4.92568 38.3846C5.83939 39.3032 6.71365 40.1824 7.60886 41.0825C8.21307 40.4746 8.86044 39.8359 9.49178 39.1836C9.80991 38.8556 10.1206 38.8445 10.5276 39.0381C11.2896 39.3994 12.0652 39.7372 12.8569 40.0233C13.5807 40.2847 13.6571 40.3315 13.6571 41.0936C13.6571 41.9505 13.6571 42.8075 13.6571 43.6842H17.4525L17.4575 43.6817ZM25.6575 12.4265C26.2654 12.4968 26.7709 12.4795 27.2716 12.0122C28.7229 10.6558 30.2359 9.36484 31.7242 8.04795C32.5417 7.32539 33.4998 6.92341 34.585 6.92958C36.4272 6.94068 37.8267 7.76805 38.6245 9.43636C39.4322 11.1232 39.209 12.7557 38.0105 14.1836C36.6824 15.7644 35.3088 17.3069 33.9055 18.8198C33.4505 19.3106 33.5529 19.8001 33.559 20.3316H35.7773C35.7773 19.7693 35.7884 19.2341 35.7736 18.7002C35.7613 18.2267 35.9796 17.9764 36.4259 17.8285C36.9636 17.6509 37.4963 17.4413 37.9981 17.1799C38.4433 16.9493 38.7811 16.9962 39.1042 17.3624C39.4569 17.7631 39.8206 18.154 40.1449 18.5116C40.7467 17.9185 41.2584 17.4142 41.8416 16.8396C41.4507 16.4758 41.0488 16.096 40.6406 15.7249C40.3188 15.4314 40.2978 15.1158 40.4815 14.7286C40.7368 14.1885 40.9772 13.6373 41.1696 13.0726C41.3163 12.641 41.5593 12.4425 42.013 12.4561C42.5618 12.4721 43.1117 12.4598 43.6666 12.4598V10.223C43.1117 10.223 42.5889 10.2119 42.0673 10.2267C41.5827 10.2403 41.3065 10.0406 41.1536 9.5646C40.9822 9.02576 40.7578 8.49925 40.505 7.99246C40.2954 7.572 40.3102 7.23907 40.6677 6.92095C41.0759 6.5572 41.4717 6.17989 41.8318 5.84573C41.2374 5.2477 40.7306 4.73722 40.1881 4.18975C39.8329 4.55473 39.4495 4.93205 39.0857 5.32785C38.7639 5.67804 38.4346 5.7064 38.0129 5.49555C37.5061 5.24277 36.9796 5.01836 36.4407 4.84573C35.9685 4.69407 35.7601 4.42526 35.7749 3.93698C35.7921 3.4043 35.7786 2.87039 35.7786 2.33032H33.5393C33.5393 2.91478 33.5307 3.46842 33.5418 4.02082C33.5504 4.45609 33.3457 4.68667 32.9376 4.82724C32.3876 5.01589 31.8451 5.23784 31.3222 5.49431C30.9054 5.699 30.57 5.6953 30.247 5.33772C29.8795 4.93081 29.4936 4.54117 29.1594 4.19098C28.5811 4.77298 28.0731 5.28223 27.5219 5.8371C27.8795 6.17742 28.2642 6.55473 28.66 6.91848C29.0077 7.23784 29.041 7.56583 28.8228 7.99C28.57 8.47828 28.3616 8.99493 28.1803 9.51528C27.9806 10.0886 27.84 10.2193 27.2148 10.223C26.6969 10.2255 26.1791 10.223 25.6575 10.223V12.4265ZM21.6376 30.7508C22.4613 29.8211 23.2246 28.9764 23.9657 28.1145C24.2961 27.7298 24.7968 27.3254 24.8338 26.8975C24.8732 26.4462 24.4651 25.9481 24.2246 25.4844C23.9213 24.8988 23.9287 24.7557 24.4083 24.2761C25.0274 23.6571 25.6488 23.0406 26.2456 22.4462C25.3282 21.5399 24.4441 20.6657 23.5378 19.7705C22.9176 20.3907 22.2616 21.0406 21.6142 21.6978C21.3109 22.006 21.0038 22.0492 20.6203 21.8322C20.1924 21.5905 19.7374 21.3981 19.2985 21.1774C19.0802 21.0677 18.9211 21.0911 18.7275 21.2662C17.6646 22.228 16.5857 23.17 15.5154 24.1219C15.4463 24.1836 15.397 24.2662 15.3168 24.3661C18.7596 24.2563 21.7153 27.0073 21.6376 30.7508ZM10.8408 30.4092C10.858 33.048 12.9765 35.1565 15.6091 35.1528C18.2553 35.1491 20.3379 33.0418 20.3269 30.3809C20.3158 27.7335 18.1702 25.6386 15.4969 25.6657C12.9062 25.6916 10.8235 27.8124 10.8408 30.4092ZM25.9139 25.9197C27.9806 23.5831 30.0152 21.2847 32.0732 18.9592C31.8105 18.8482 31.5812 18.7865 31.3925 18.6645C31.0522 18.445 30.8241 18.5436 30.5799 18.826C30.2877 19.1626 29.9584 19.466 29.6366 19.7767C29.2322 20.1676 28.9116 20.175 28.5207 19.789C27.7426 19.0208 26.9695 18.2477 26.2012 17.4697C25.8301 17.0936 25.8289 16.7656 26.1938 16.3883C26.5675 15.9999 26.9633 15.6324 27.3283 15.2366C27.4084 15.1491 27.4615 14.9641 27.4269 14.8556C27.3295 14.551 27.1803 14.2637 27.0336 13.9259C24.7105 15.9826 22.4095 18.0184 20.0815 20.0775C20.2356 20.1577 20.3515 20.2008 20.4477 20.2724C20.8078 20.5375 21.0716 20.4623 21.37 20.1293C21.883 19.5572 22.4478 19.0307 22.9952 18.4881C23.4453 18.043 23.7622 18.043 24.2148 18.4931C25.3171 19.5905 26.417 20.6904 27.5145 21.7927C27.9633 22.2428 27.9584 22.5486 27.5034 23.0085C26.9399 23.5782 26.385 24.1565 25.798 24.699C25.5403 24.937 25.4565 25.1343 25.6686 25.4327C25.7623 25.5646 25.819 25.7237 25.9176 25.9185L25.9139 25.9197ZM30.2001 11.1207C29.8512 11.429 29.5639 11.6817 29.279 11.9345C27.967 13.0948 27.9584 13.0997 28.8104 14.6694C29.0497 15.1084 28.9954 15.4425 28.6329 15.773C28.2371 16.1318 27.8634 16.5153 27.5083 16.8605C28.0632 17.4265 28.5675 17.9407 29.1224 18.5054C29.5084 18.1047 29.9042 17.699 30.2951 17.2896C30.5774 16.9925 30.8771 16.9542 31.2495 17.1441C31.7131 17.3796 32.1965 17.5794 32.6811 17.7705C32.8069 17.8198 33.0337 17.8396 33.1028 17.7668C33.6947 17.1367 34.2607 16.4832 34.8747 15.7927C32.0818 15.7089 30.2494 13.7311 30.2001 11.1207ZM34.67 8.20825C32.9585 8.20578 31.5503 9.59912 31.5343 11.3094C31.5183 13.0122 32.9178 14.4376 34.6256 14.4561C36.3483 14.4758 37.7799 13.059 37.7848 11.3291C37.7897 9.62625 36.3766 8.21071 34.67 8.20825Z" fill="#252C40" stroke="#252C40"/>
</svg>
