<svg width="28" height="19" viewBox="0 0 28 19" fill="none" xmlns="http://www.w3.org/2000/svg">
<path d="M0.000887631 12.4694C-0.0134132 13.3047 0.14522 14.1343 0.467315 14.9086C0.78941 15.6829 1.26836 16.3861 1.87558 16.9761C2.46696 17.5881 3.17631 18.0806 3.9631 18.4255C4.7499 18.7705 5.59874 18.961 6.46114 18.9863C6.49211 18.9899 6.52351 18.9865 6.55298 18.9766C6.58244 18.9666 6.60921 18.9503 6.63126 18.9288C6.65332 18.9073 6.67008 18.8812 6.68031 18.8525C6.69053 18.8238 6.69395 18.7932 6.6903 18.7631V17.0154C6.6903 16.8571 6.60903 16.7658 6.46114 16.7658C5.90373 16.7464 5.35607 16.6177 4.85087 16.3874C4.34568 16.1571 3.89332 15.83 3.52084 15.4256C2.73231 14.6347 2.2961 13.5726 2.30708 12.4702C2.29718 11.4176 2.70281 10.4016 3.44012 9.63219C4.17387 8.83928 5.18258 8.33855 6.27234 8.22626H6.98717C7.16242 8.22626 7.25804 8.1471 7.25804 7.98877L7.3393 7.2399C7.48602 5.8625 8.15172 4.58699 9.20773 3.65997C10.2637 2.73296 11.635 2.22026 13.0566 2.22099C14.4796 2.21052 15.8536 2.72712 16.9005 3.66624C17.9769 4.57559 18.649 5.85651 18.7752 7.23911L18.8835 7.98798C18.8786 8.02028 18.8815 8.05326 18.892 8.08426C18.9025 8.11527 18.9203 8.14345 18.944 8.16654C18.9677 8.18963 18.9966 8.20698 19.0285 8.21722C19.0603 8.22745 19.0941 8.23028 19.1273 8.22547H21.2972C21.877 8.2198 22.4519 8.32865 22.9873 8.54543C23.5227 8.76222 24.0074 9.08245 24.4122 9.48679C24.8301 9.86674 25.1632 10.3265 25.3906 10.8374C25.618 11.3483 25.735 11.8993 25.7341 12.4562C25.7451 13.5586 25.3089 14.6207 24.5203 15.4116C24.1469 15.8149 23.6944 16.1413 23.1894 16.3715C22.6844 16.6017 22.1372 16.731 21.58 16.7518C21.4048 16.7518 21.3092 16.831 21.3092 17.0014V18.7488C21.3092 18.8934 21.4037 18.972 21.58 18.972C22.7257 18.9516 23.8442 18.6292 24.8169 18.0392C25.7943 17.4555 26.6006 16.6362 27.1582 15.6603C27.7157 14.6845 28.0056 13.5851 27.9999 12.4683C28.0045 11.6059 27.826 10.7519 27.4758 9.95992C26.8008 8.39982 25.5206 7.16257 23.9138 6.51741C23.0955 6.17665 22.2143 6.00227 21.3243 6.00496H20.8936C20.4779 4.29015 19.4736 2.76505 18.0468 1.68216C16.6429 0.577383 14.8882 -0.0171615 13.0836 0.000483428C11.2366 -0.019727 9.44115 0.594333 8.01241 1.73493C6.573 2.8434 5.57219 4.40338 5.18019 6.14957C3.71811 6.46523 2.41551 7.26937 1.49826 8.42259C0.510497 9.5492 -0.0218528 10.9879 0.000887631 12.4694ZM9.36107 13.2971C9.35525 13.6076 9.47154 13.9085 9.68612 14.1381C9.79484 14.2405 9.9239 14.3201 10.0654 14.372C10.2068 14.424 10.3577 14.4472 10.5088 14.4403C10.8164 14.4447 11.1147 14.3369 11.3449 14.1381L12.842 12.6404V17.8696C12.8375 18.1653 12.9484 18.4517 13.1522 18.671C13.2525 18.7786 13.3756 18.8637 13.513 18.9204C13.6504 18.9771 13.7988 19.0041 13.948 18.9995C14.0995 18.9989 14.2494 18.9691 14.389 18.912C14.5287 18.8548 14.6554 18.7713 14.7619 18.6664C14.8684 18.5614 14.9526 18.437 15.0096 18.3002C15.0667 18.1635 15.0955 18.0172 15.0943 17.8696V12.6929L16.605 14.1513C16.8314 14.3481 17.1243 14.4569 17.4277 14.4569C17.7312 14.4569 18.024 14.3481 18.2505 14.1513C18.3605 14.0455 18.4464 13.9183 18.5024 13.7779C18.5584 13.6375 18.5833 13.4872 18.5755 13.3367C18.5787 13.0346 18.4623 12.7429 18.2505 12.5221L14.7563 9.14455C14.6507 9.0407 14.5245 8.95902 14.3852 8.90456C14.246 8.8501 14.0969 8.82401 13.9469 8.8279C13.7988 8.8228 13.6513 8.84839 13.5141 8.90298C13.3769 8.95757 13.2532 9.0399 13.1511 9.14455L9.67122 12.5219C9.56956 12.6248 9.48981 12.7462 9.43658 12.8793C9.38335 13.0124 9.35769 13.1544 9.36107 13.2971Z" fill="#FF2625"/>
</svg>
