<svg width="17" height="20" viewBox="0 0 17 20" fill="none" xmlns="http://www.w3.org/2000/svg">
<path d="M8.5 12C9.05 12 9.521 11.804 9.913 11.412C10.3043 11.0207 10.5 10.55 10.5 10C10.5 9.45 10.3043 8.979 9.913 8.587C9.521 8.19567 9.05 8 8.5 8C7.95 8 7.47933 8.19567 7.088 8.587C6.696 8.979 6.5 9.45 6.5 10C6.5 10.55 6.696 11.0207 7.088 11.412C7.47933 11.804 7.95 12 8.5 12ZM4.5 16H12.5V15.425C12.5 15.025 12.3917 14.6583 12.175 14.325C11.9583 13.9917 11.6583 13.7417 11.275 13.575C10.8417 13.3917 10.396 13.25 9.938 13.15C9.47933 13.05 9 13 8.5 13C8 13 7.52067 13.05 7.062 13.15C6.604 13.25 6.15833 13.3917 5.725 13.575C5.34167 13.7417 5.04167 13.9917 4.825 14.325C4.60833 14.6583 4.5 15.025 4.5 15.425V16ZM14.5 20H2.5C1.95 20 1.47933 19.8043 1.088 19.413C0.696 19.021 0.5 18.55 0.5 18V2C0.5 1.45 0.696 0.979 1.088 0.587C1.47933 0.195667 1.95 0 2.5 0H10.5L16.5 6V18C16.5 18.55 16.3043 19.021 15.913 19.413C15.521 19.8043 15.05 20 14.5 20ZM14.5 18V6.85L9.65 2H2.5V18H14.5Z" fill="#FF2625"/>
</svg>
