<svg width="25" height="24" viewBox="0 0 25 24" fill="none" xmlns="http://www.w3.org/2000/svg">
<g id="captive_portal">
<mask id="mask0_149_1977" style="mask-type:alpha" maskUnits="userSpaceOnUse" x="0" y="0" width="25" height="24">
<rect id="Bounding box" x="0.310547" width="24" height="24" fill="#D9D9D9"/>
</mask>
<g mask="url(#mask0_149_1977)">
<path id="captive_portal_2" d="M9.71055 19.55C9.41055 19 9.14805 18.4292 8.92305 17.8375C8.69805 17.2458 8.51055 16.6333 8.36055 16H5.41055C5.89388 16.8333 6.49805 17.5583 7.22305 18.175C7.94805 18.7917 8.77721 19.25 9.71055 19.55ZM4.56055 14H7.96055C7.91055 13.6667 7.87305 13.3375 7.84805 13.0125C7.82305 12.6875 7.81055 12.35 7.81055 12C7.81055 11.65 7.82305 11.3125 7.84805 10.9875C7.87305 10.6625 7.91055 10.3333 7.96055 10H4.56055C4.47721 10.3333 4.41471 10.6625 4.37305 10.9875C4.33138 11.3125 4.31055 11.65 4.31055 12C4.31055 12.35 4.33138 12.6875 4.37305 13.0125C4.41471 13.3375 4.47721 13.6667 4.56055 14ZM5.41055 8H8.36055C8.51055 7.36667 8.69805 6.75417 8.92305 6.1625C9.14805 5.57083 9.41055 5 9.71055 4.45C8.77721 4.75 7.94805 5.20833 7.22305 5.825C6.49805 6.44167 5.89388 7.16667 5.41055 8ZM10.4105 8H14.2105C14.0105 7.26667 13.7522 6.575 13.4355 5.925C13.1189 5.275 12.7439 4.65 12.3105 4.05C11.8772 4.65 11.5022 5.275 11.1855 5.925C10.8689 6.575 10.6105 7.26667 10.4105 8ZM16.2605 8H19.2105C18.7272 7.16667 18.123 6.44167 17.398 5.825C16.673 5.20833 15.8439 4.75 14.9105 4.45C15.2105 5 15.473 5.57083 15.698 6.1625C15.923 6.75417 16.1105 7.36667 16.2605 8ZM12.3105 22C10.9439 22 9.65221 21.7375 8.43555 21.2125C7.21888 20.6875 6.15638 19.9708 5.24805 19.0625C4.33971 18.1542 3.62305 17.0917 3.09805 15.875C2.57305 14.6583 2.31055 13.3667 2.31055 12C2.31055 10.6167 2.57305 9.32083 3.09805 8.1125C3.62305 6.90417 4.33971 5.84583 5.24805 4.9375C6.15638 4.02917 7.21888 3.3125 8.43555 2.7875C9.65221 2.2625 10.9439 2 12.3105 2C13.6939 2 14.9897 2.2625 16.198 2.7875C17.4064 3.3125 18.4647 4.02917 19.373 4.9375C20.2814 5.84583 20.998 6.90417 21.523 8.1125C22.048 9.32083 22.3105 10.6167 22.3105 12C22.3105 12.1667 22.3064 12.3333 22.298 12.5C22.2897 12.6667 22.2772 12.8333 22.2605 13H20.2355C20.2689 12.8333 20.2897 12.6708 20.298 12.5125C20.3064 12.3542 20.3105 12.1833 20.3105 12C20.3105 11.65 20.2897 11.3125 20.248 10.9875C20.2064 10.6625 20.1439 10.3333 20.0605 10H16.6605C16.7105 10.3333 16.748 10.6625 16.773 10.9875C16.798 11.3125 16.8105 11.65 16.8105 12V12.5125C16.8105 12.6708 16.8022 12.8333 16.7855 13H14.7855C14.8022 12.8333 14.8105 12.6708 14.8105 12.5125V12C14.8105 11.65 14.798 11.3125 14.773 10.9875C14.748 10.6625 14.7105 10.3333 14.6605 10H9.96055C9.91055 10.3333 9.87305 10.6625 9.84805 10.9875C9.82305 11.3125 9.81055 11.65 9.81055 12C9.81055 12.35 9.82305 12.6875 9.84805 13.0125C9.87305 13.3375 9.91055 13.6667 9.96055 14H13.3105V16H10.4105C10.6105 16.7333 10.8689 17.425 11.1855 18.075C11.5022 18.725 11.8772 19.35 12.3105 19.95C12.4939 19.6833 12.6689 19.4125 12.8355 19.1375C13.0022 18.8625 13.1605 18.5833 13.3105 18.3V21.95C13.1439 21.9667 12.9814 21.9792 12.823 21.9875C12.6647 21.9958 12.4939 22 12.3105 22ZM20.2605 21.375L17.3105 18.425V20.65H15.3105V15H20.9605V17H18.7105L21.6605 19.95L20.2605 21.375Z" fill="#8994AF"/>
</g>
</g>
</svg>
