<svg width="20" height="20" viewBox="0 0 20 20" fill="none" xmlns="http://www.w3.org/2000/svg">
<g id="Capa_1" clip-path="url(#clip0_149_1964)">
<g id="6PRIkd.tif">
<g id="Group">
<path id="Vector" d="M9.41438 0C9.83257 0 10.2513 0 10.6695 0C10.7266 0.0114808 10.7827 0.0250489 10.8403 0.0339204C11.3177 0.105414 11.8024 0.144031 12.2715 0.251533C17.5396 1.46119 20.882 6.59622 19.7951 11.8763C18.4698 18.3155 11.3895 21.7659 5.42382 18.699C5.34207 18.6573 5.22206 18.6463 5.13245 18.6693C3.42041 19.1087 1.71047 19.5549 0 20C0 19.987 0 19.9739 0 19.9609C0.0151972 19.9264 0.0351107 19.893 0.0450675 19.857C0.492598 18.2341 0.940652 16.6106 1.38189 14.986C1.40233 14.9104 1.38189 14.806 1.34364 14.735C0.156688 12.5542 -0.187082 10.2492 0.315996 7.82153C1.11883 3.94834 4.41399 0.789563 8.3118 0.153425C8.67811 0.0939335 9.04651 0.0506197 9.41438 0ZM2.40535 17.6303C2.49129 17.613 2.54684 17.6042 2.60134 17.5901C3.51055 17.3537 4.41976 17.1199 5.32739 16.8767C5.47098 16.8381 5.5826 16.8522 5.71047 16.9305C6.98546 17.7085 8.37364 18.1255 9.8682 18.1506C11.8543 18.184 13.6565 17.6089 15.1898 16.3486C17.6062 14.3629 18.6207 11.7876 18.2209 8.69302C18.0123 7.07789 17.3316 5.64801 16.2264 4.44566C14.2172 2.2591 11.7128 1.36151 8.77296 1.77952C6.75593 2.06601 5.07271 3.02727 3.75685 4.57717C2.16009 6.45793 1.53858 8.64136 1.85825 11.081C2.01598 12.2849 2.44884 13.3954 3.11699 14.4115C3.2087 14.5508 3.22442 14.6719 3.1783 14.8284C3.03105 15.3273 2.89689 15.8294 2.7596 16.3309C2.64326 16.7546 2.52902 17.1789 2.40639 17.6308L2.40535 17.6303Z" fill="#8994AF"/>
<path id="Vector_2" d="M6.84727 5.34685C7.27384 5.23883 7.46721 5.51541 7.61446 5.89375C7.83823 6.46935 8.08138 7.03765 8.32611 7.6049C8.40209 7.78129 8.42044 7.94933 8.30934 8.10484C8.11282 8.37881 7.91002 8.64913 7.69621 8.91006C7.53219 9.10993 7.51018 9.21012 7.64171 9.434C8.44664 10.8013 9.5859 11.7823 11.0668 12.3679C11.2917 12.4566 11.4054 12.4305 11.5662 12.2369C11.812 11.9415 12.0547 11.6425 12.2926 11.3408C12.4781 11.106 12.5902 11.0523 12.8638 11.1775C13.5513 11.4922 14.2305 11.8256 14.9128 12.1523C15.0464 12.2165 15.0988 12.3303 15.0951 12.4712C15.0778 13.1741 14.8819 13.7753 14.2462 14.1917C13.4088 14.7407 12.5336 14.7772 11.6014 14.5127C9.2327 13.8395 7.4866 12.3485 6.08584 10.3921C5.65455 9.7899 5.26624 9.16838 5.08859 8.44091C4.82028 7.34398 5.09016 6.39682 5.89928 5.60256C6.15606 5.3505 6.46996 5.30875 6.84779 5.34737L6.84727 5.34685Z" fill="#8994AF"/>
</g>
</g>
</g>
<defs>
<clipPath id="clip0_149_1964">
<rect width="20" height="20" fill="white"/>
</clipPath>
</defs>
</svg>
