<svg width="14" height="14" viewBox="0 0 14 14" fill="none" xmlns="http://www.w3.org/2000/svg">
<path d="M10.1486 8.36976C9.97827 8.28226 9.12983 7.86664 8.97202 7.81039C8.81421 7.75101 8.69858 7.72289 8.58452 7.89789C8.4689 8.07133 8.14077 8.45726 8.03765 8.57445C7.93765 8.69007 7.83608 8.70414 7.66577 8.6182C6.65327 8.11195 5.98921 7.71508 5.32202 6.56976C5.14546 6.26507 5.49858 6.28695 5.82827 5.62914C5.88452 5.51351 5.8564 5.41507 5.81264 5.32758C5.7689 5.24008 5.42515 4.3932 5.28139 4.04789C5.14233 3.71195 4.99858 3.75882 4.8939 3.75257C4.7939 3.74632 4.67983 3.74632 4.56421 3.74632C4.44858 3.74632 4.26265 3.79007 4.10483 3.96039C3.94702 4.13382 3.50171 4.55101 3.50171 5.39789C3.50171 6.24476 4.11889 7.06507 4.20327 7.1807C4.29077 7.29632 5.41733 9.03382 7.14702 9.78226C8.24077 10.2541 8.6689 10.2948 9.21577 10.2135C9.54858 10.1635 10.2345 9.79789 10.3767 9.3932C10.5189 8.99008 10.5189 8.64476 10.4767 8.57289C10.4345 8.49633 10.3189 8.45258 10.1486 8.36976Z" fill="white"/>
<path d="M13.4563 4.28762C13.1032 3.44856 12.597 2.69543 11.9517 2.04856C11.3109 1.40543 10.5501 0.894219 9.71259 0.543872C8.85321 0.182935 7.94071 0.00012207 7.00009 0.00012207H6.96884C6.02196 0.00480957 5.10478 0.19231 4.24228 0.56106C3.4119 0.914999 2.65831 1.42712 2.02353 2.06887C1.38446 2.71418 0.882901 3.46418 0.536026 4.30012C0.176651 5.16575 -0.00459886 6.08606 8.86448e-05 7.03293C0.0053906 8.11804 0.262107 9.18716 0.750089 10.1564V12.5314C0.750089 12.722 0.825814 12.9048 0.960606 13.0396C1.0954 13.1744 1.27821 13.2501 1.46884 13.2501H3.8454C4.81461 13.7381 5.88373 13.9948 6.96884 14.0001H7.00165C7.93759 14.0001 8.8454 13.8189 9.70009 13.4642C10.5334 13.118 11.2913 12.6128 11.9313 11.9767C12.5767 11.3376 13.0845 10.5907 13.4392 9.75793C13.8079 8.89543 13.9954 7.97825 14.0001 7.03137C14.0048 6.07981 13.8204 5.15637 13.4563 4.28762ZM11.0954 11.1314C10.0001 12.2157 8.54696 12.8126 7.00009 12.8126H6.97353C6.03134 12.8079 5.0954 12.5736 4.26884 12.1329L4.13759 12.0626H1.93759V9.86262L1.86728 9.73137C1.42665 8.90481 1.19228 7.96887 1.18759 7.02668C1.18134 5.46887 1.77665 4.00637 2.86884 2.90481C3.95946 1.80325 5.41728 1.19387 6.97509 1.18762H7.00165C7.7829 1.18762 8.54071 1.33918 9.25478 1.63918C9.95165 1.93137 10.5767 2.35168 11.1142 2.88918C11.6501 3.42512 12.072 4.05168 12.3642 4.74856C12.6673 5.47043 12.8188 6.23606 12.8157 7.02668C12.8063 8.58293 12.1954 10.0407 11.0954 11.1314Z" fill="white"/>
</svg>
