<svg width="9" height="15" viewBox="0 0 9 15" fill="none" xmlns="http://www.w3.org/2000/svg">
<path d="M6.66475 14.7032L0.452765 8.05409C0.379032 7.97493 0.326928 7.88918 0.296451 7.79683C0.265484 7.70449 0.25 7.60554 0.25 7.5C0.25 7.39446 0.265484 7.29551 0.296451 7.20317C0.326928 7.11082 0.379032 7.02507 0.452765 6.94591L6.66475 0.277045C6.83679 0.0923482 7.05184 0 7.30991 0C7.56797 0 7.78917 0.0989446 7.9735 0.296834C8.15783 0.494723 8.25 0.725594 8.25 0.989446C8.25 1.2533 8.15783 1.48417 7.9735 1.68206L2.55415 7.5L7.9735 13.3179C8.14554 13.5026 8.23157 13.7301 8.23157 14.0003C8.23157 14.271 8.1394 14.5053 7.95507 14.7032C7.77074 14.9011 7.55568 15 7.30991 15C7.06413 15 6.84908 14.9011 6.66475 14.7032Z" fill="#FF2625"/>
</svg>
