<svg width="15" height="9" viewBox="0 0 15 9" fill="none" xmlns="http://www.w3.org/2000/svg">
<path d="M14.7032 2.08525L8.05409 8.29723C7.97493 8.37097 7.88918 8.42307 7.79683 8.45355C7.70449 8.48452 7.60554 8.5 7.5 8.5C7.39446 8.5 7.29551 8.48452 7.20317 8.45355C7.11082 8.42307 7.02507 8.37097 6.94591 8.29724L0.277044 2.08525C0.0923479 1.91321 -2.97318e-07 1.69816 -3.08598e-07 1.44009C-3.19879e-07 1.18203 0.0989443 0.96083 0.296833 0.776498C0.494723 0.592167 0.725593 0.500001 0.989446 0.500001C1.2533 0.500001 1.48417 0.592167 1.68206 0.776498L7.5 6.19585L13.3179 0.776498C13.5026 0.604455 13.7301 0.518433 14.0003 0.518433C14.271 0.518433 14.5053 0.610599 14.7032 0.794931C14.9011 0.979262 15 1.19432 15 1.44009C15 1.68587 14.9011 1.90092 14.7032 2.08525Z" fill="#FF2625"/>
</svg>
