<svg width="8" height="16" viewBox="0 0 8 16" fill="none" xmlns="http://www.w3.org/2000/svg">
<path d="M1.58525 0.796832L7.79724 7.44591C7.87097 7.52507 7.92307 7.61082 7.95355 7.70317C7.98452 7.79551 8 7.89446 8 8C8 8.10554 7.98452 8.20449 7.95355 8.29683C7.92307 8.38918 7.87097 8.47493 7.79724 8.55409L1.58525 15.223C1.41321 15.4077 1.19816 15.5 0.940092 15.5C0.682027 15.5 0.460829 15.4011 0.276497 15.2032C0.0921655 15.0053 6.34334e-08 14.7744 8.65001e-08 14.5106C1.09567e-07 14.2467 0.0921656 14.0158 0.276498 13.8179L5.69585 8L0.276499 2.18206C0.104456 1.99736 0.0184338 1.76992 0.0184338 1.49974C0.0184339 1.22902 0.1106 0.994722 0.294932 0.796832C0.479264 0.598943 0.694317 0.499999 0.940093 0.499999C1.18587 0.499999 1.40092 0.598943 1.58525 0.796832Z" fill="#FF2625"/>
</svg>
